<svg id="Layer_1" data-name="Layer 1" xmlns="http://www.w3.org/2000/svg" viewBox="0 0 408 408"><defs><style>.cls-1{fill-rule:evenodd;}</style></defs><title>radar</title><path class="cls-1" d="M246.26,263.37a16.63,16.63,0,1,0-16.63-16.63A16.66,16.66,0,0,0,246.26,263.37Z" transform="translate(-42.26 -42.74)"/><path d="M246.26,42.74A204,204,0,1,1,102,102.49,203.36,203.36,0,0,1,246.26,42.74Zm133.1,70.9a188.24,188.24,0,1,0,55.13,133.1A187.65,187.65,0,0,0,379.36,113.64Z" transform="translate(-42.26 -42.74)"/><path d="M246.26,187.29a59.46,59.46,0,1,1-42,17.41,59.28,59.28,0,0,1,42-17.41Zm30.88,28.56a43.67,43.67,0,1,0,12.8,30.89A43.54,43.54,0,0,0,277.14,215.85Z" transform="translate(-42.26 -42.74)"/><path d="M246.26,101.66a144.61,144.61,0,0,1,51.9,9.57l-6.42,14.43a129.21,129.21,0,1,0,75.6,75.6l14.43-6.42a145.1,145.1,0,1,1-135.51-93.18Z" transform="translate(-42.26 -42.74)"/><path class="cls-1" d="M365.82,127.18a168.6,168.6,0,0,1,35.68,52.41L242.77,250.23,313.41,91.5A168.6,168.6,0,0,1,365.82,127.18Z" transform="translate(-42.26 -42.74)"/><path class="cls-1" d="M143.81,175.28a18.48,18.48,0,1,0-18.48-18.48A18.51,18.51,0,0,0,143.81,175.28Z" transform="translate(-42.26 -42.74)"/><path class="cls-1" d="M224.65,398.52A18.48,18.48,0,1,0,206.17,380,18.52,18.52,0,0,0,224.65,398.52Z" transform="translate(-42.26 -42.74)"/><path class="cls-1" d="M233.46,128A18.48,18.48,0,1,0,215,109.47,18.51,18.51,0,0,0,233.46,128Z" transform="translate(-42.26 -42.74)"/><path class="cls-1" d="M195.34,251.39a18.48,18.48,0,1,0-18.48-18.48A18.51,18.51,0,0,0,195.34,251.39Z" transform="translate(-42.26 -42.74)"/></svg>